<mxfile host="app.diagrams.net" modified="2023-02-18T09:09:43.511Z" agent="5.0 (Windows NT 10.0; Win64; x64) AppleWebKit/537.36 (KHTML, like Gecko) Chrome/109.0.0.0 Safari/537.36" etag="ILM_Tw3rIbniWxG8LGw5" version="20.8.20" type="github">
  <diagram name="第 1 页" id="kGkFECAD7L5SIONfLiR-">
    <mxGraphModel dx="1050" dy="493" grid="1" gridSize="10" guides="1" tooltips="1" connect="1" arrows="1" fold="1" page="1" pageScale="1" pageWidth="827" pageHeight="1169" math="0" shadow="0">
      <root>
        <mxCell id="0" />
        <mxCell id="1" parent="0" />
        <mxCell id="vWYL22HOKi1POMej1I_p-1" value="&lt;p style=&quot;&quot;&gt;&lt;font color=&quot;#006658&quot; style=&quot;font-size: 20px;&quot;&gt;Calculated by subtracting the environmental cost from the traditional GDP.&lt;/font&gt;&lt;/p&gt;&lt;p&gt;&lt;/p&gt;&lt;p&gt;&lt;/p&gt;" style="rounded=1;html=1;sketch=1;hachureGap=4;jiggle=2;fillStyle=zigzag;curveFitting=1;strokeColor=#006658;fontFamily=Architects Daughter;fontSource=https%3A%2F%2Ffonts.googleapis.com%2Fcss%3Ffamily%3DArchitects%2BDaughter;fontSize=12;fontColor=#5C5C5C;fillColor=#C3E0D9;shadow=0;labelBackgroundColor=none;strokeWidth=2;labelPosition=center;verticalLabelPosition=middle;align=center;verticalAlign=middle;whiteSpace=wrap;" vertex="1" parent="1">
          <mxGeometry x="260" y="320" width="360" height="120" as="geometry" />
        </mxCell>
        <mxCell id="vWYL22HOKi1POMej1I_p-6" value="&lt;p style=&quot;font-size: 15px;&quot;&gt;&lt;br&gt;&lt;/p&gt;&lt;p&gt;&lt;/p&gt;&lt;p&gt;&lt;/p&gt;" style="rounded=1;whiteSpace=wrap;html=1;sketch=1;hachureGap=4;jiggle=2;fillStyle=zigzag;curveFitting=1;strokeColor=#5C5C5C;fontFamily=Architects Daughter;fontSource=https%3A%2F%2Ffonts.googleapis.com%2Fcss%3Ffamily%3DArchitects%2BDaughter;fontSize=12;fontColor=#5C5C5C;fillColor=#C7C7C7;shadow=0;labelBackgroundColor=none;strokeWidth=2;" vertex="1" parent="1">
          <mxGeometry x="260" y="520" width="360" height="120" as="geometry" />
        </mxCell>
        <mxCell id="vWYL22HOKi1POMej1I_p-8" value="&lt;font color=&quot;#006658&quot;&gt;GGDP&lt;/font&gt;" style="ellipse;whiteSpace=wrap;html=1;sketch=1;hachureGap=4;jiggle=2;curveFitting=1;strokeColor=#006658;fontFamily=Architects Daughter;fontSource=https%3A%2F%2Ffonts.googleapis.com%2Fcss%3Ffamily%3DArchitects%2BDaughter;fontSize=20;fontColor=#5C5C5C;fillColor=none;rounded=1;" vertex="1" parent="1">
          <mxGeometry x="60" y="440" width="120" height="80" as="geometry" />
        </mxCell>
        <mxCell id="vWYL22HOKi1POMej1I_p-10" value="" style="shape=flexArrow;endArrow=classic;html=1;rounded=1;sketch=1;hachureGap=4;jiggle=2;curveFitting=1;strokeColor=#006658;fontFamily=Architects Daughter;fontSource=https%3A%2F%2Ffonts.googleapis.com%2Fcss%3Ffamily%3DArchitects%2BDaughter;fontSize=16;fontColor=#5C5C5C;fillColor=#21C0A5;" edge="1" parent="1">
          <mxGeometry width="50" height="50" relative="1" as="geometry">
            <mxPoint x="190" y="440" as="sourcePoint" />
            <mxPoint x="240" y="390" as="targetPoint" />
          </mxGeometry>
        </mxCell>
        <mxCell id="vWYL22HOKi1POMej1I_p-18" value="Type 1" style="text;html=1;strokeColor=none;fillColor=none;align=center;verticalAlign=middle;whiteSpace=wrap;rounded=0;fontSize=20;fontFamily=Architects Daughter;fontColor=#006658;" vertex="1" parent="1">
          <mxGeometry x="410" y="280" width="60" height="30" as="geometry" />
        </mxCell>
        <mxCell id="vWYL22HOKi1POMej1I_p-19" value="Type 2" style="text;html=1;strokeColor=none;fillColor=none;align=center;verticalAlign=middle;whiteSpace=wrap;rounded=0;fontSize=20;fontFamily=Architects Daughter;fontColor=#5C5C5C;" vertex="1" parent="1">
          <mxGeometry x="402" y="480" width="76" height="30" as="geometry" />
        </mxCell>
        <mxCell id="vWYL22HOKi1POMej1I_p-21" value="&lt;font color=&quot;#006658&quot;&gt;?&lt;/font&gt;" style="text;html=1;align=center;verticalAlign=middle;resizable=0;points=[];autosize=1;strokeColor=none;fillColor=none;fontSize=50;fontFamily=Architects Daughter;fontColor=#5C5C5C;" vertex="1" parent="1">
          <mxGeometry x="170" y="450" width="50" height="70" as="geometry" />
        </mxCell>
        <mxCell id="vWYL22HOKi1POMej1I_p-23" value="" style="shape=flexArrow;endArrow=classic;html=1;rounded=1;sketch=1;hachureGap=4;jiggle=2;curveFitting=1;strokeColor=#5C5C5C;fontFamily=Architects Daughter;fontSource=https%3A%2F%2Ffonts.googleapis.com%2Fcss%3Ffamily%3DArchitects%2BDaughter;fontSize=16;fontColor=#5C5C5C;fillColor=#D0D0D0;" edge="1" parent="1">
          <mxGeometry width="50" height="50" relative="1" as="geometry">
            <mxPoint x="190" y="520" as="sourcePoint" />
            <mxPoint x="240" y="570" as="targetPoint" />
          </mxGeometry>
        </mxCell>
      </root>
    </mxGraphModel>
  </diagram>
</mxfile>
